<svg width="600" height="265" viewBox="0 0 600 265" xmlns="http://www.w3.org/2000/svg">
    <path d="m281.33 76.05 3.89-1.92a4.71 4.71 0 0 1 1.07 3.25c-.29 11.62 5.19 20.72 12.38 29.12 7.08 12.56 18 17.27 32.08 16.22 13.24-1 21.29-8.8 27.17-19.77 1.14-2.14 1.25-4.9 3.74-6.23 2 .32 2.33 2.09 3.06 3.51a62.52 62.52 0 0 0 8.16 11.65c4.22 7.37 10.05 12.13 19 11.9a4.56 4.56 0 0 1 3.64 1.24c1.19 2 .71 4.19.38 6.33-.88 5.76-2 11.48-2.64 17.28-.65 6-2.4 6.9-7.81 4.36-5.68-2.67-11.56-4.47-17.88-3.15-11.93 2.5-18.21 10.8-20.55 22-1.85 8.76-.43 17.58 3 25.94 1.35 3.33 4 5.73 6.44 8.19a40.86 40.86 0 0 1 4.87 6.1c1.73 2.68.76 3.88-2.18 4a35.33 35.33 0 0 1 -17.85-9.26c-7.39-8.35-13.25-17.83-19.67-26.9-3.11-4.39-2.87-5.71.78-9.47 4.09-4.23 8.84-7 15-6.71a12.22 12.22 0 0 0 6.27-1.31c4.82-2.56 5.9-6.2 2.66-10.59-3.4-4.59-5.76-10.22-11.61-12.58-6.09-2.35-11.07 0-15.45 4a98 98 0 0 0 -10 10.33c-1.23 1.51-2.35 3.35-4.83 2.73-3.06-3.78-1.7-8.27-1.51-12.35.3-6.36-2.38-11.09-6.31-15.52a4.24 4.24 0 0 0 -2.12-1.19c-3.65-1.7-7.18-.46-10.65.6-2.65.81-3.22 3-3.28 5.54-.14 6.17 1 12.23 1.51 18.34.2 2.48.77 4.93-.08 7.38-2 2.47-3.14.28-4.1-1-1.92-2.48-3.68-5.08-5.62-7.54a8.66 8.66 0 0 0 -4.66-3.5c-15.24-3.19-24 1.89-34.18 16.43-1.31 1.89-1.83 4.34-4 5.65-2.36.29-2.55-1.78-3.18-3.15-2.59-5.62-6.59-10.32-10-15.39-1.35-2-3-4-5.81-4.31-11.43-3.09-20.68.9-28.71 8.82-1.36 1.34-2.24 3.41-4.7 3-1.52-1.81-.76-3.78-.34-5.7a87.71 87.71 0 0 1 2.42-10.15c2.77-7.89-.59-13.41-6.22-18.29a3.25 3.25 0 0 1 -1.27-1.75 2.07 2.07 0 0 1 .18-1.45c7-8.48 1.71-14.87-3.61-21.25-2-2.47-5.77-1.55-7.76-4-1-2.25-.4-4.52-.24-6.82.73-10.67 2.28-21.48-4.64-31a5 5 0 0 1 -1-4.21c4.41-2.31 8.66-4.94 13.42-6.51a138.25 138.25 0 0 0 .47 24.66c.95 8.61 2.32 17.09 5.31 25.25a36.21 36.21 0 0 0 8.64 13.22c5.85 9.94 12.3 13.08 20.55 9.67a25.91 25.91 0 0 0 10.68-7.88 81.1 81.1 0 0 0 7-10.25c.86-1.53 1.33-3.48 3.38-4.06a2.15 2.15 0 0 1 2.11 1.78c1.07 4.19 3.87 7.24 6.64 10.31a28 28 0 0 0 4.35 6.06c8 8.23 16.49 9.31 25.93 2.59 3.49-2.49 5.48-2.7 8.74.51 7.07 7 15.19 6.31 19.44-.86 1.76-3 2.14-5.89.17-8.92s-3.39-6.5-6-9.16c-1.92-1.73-4.62-2.14-6.54-3.87-1.38-6.97-.1-13.56 2.47-19.99z"
          fill="#2b084e"/>
    <path d="m475.9 53.76 14.68-7.54c1.17 5.7.38 11.5.68 17.24.94 17.73 2.52 35.41 3.51 53.13.45 8.23.51 16.61 3.1 24.6 1.25 2.86 3.47 5.1 5.12 7.7a5.88 5.88 0 0 0 4.9 2.78c1.6.1 3.29 0 4.59 1.27a5.11 5.11 0 0 1 .34 4.33c-2.71 9-4.55 18.36-8.13 27.13-1.09 2.66-1.75 5.85-5.14 6.87-2.31-.94-2.71-3.22-3.53-5.16-2.7-6.43-5.16-13-7.25-19.62a53.53 53.53 0 0 0 -9.23-18.08c-1.34-1.66-2.35-3.68-4.8-4-7.5-.22-8.38.78-7.44 8 .27 2.06 1.17 4.12.29 6.25-2.66 1.42-3.37-1-4.39-2.41-2.47-3.31-4.85-6.66-8.81-8.38-10.84-5.24-21.25-4.76-31.17 2.32-.74.64-1.52 1.21-2.32 1.78-1 .54-1.87 1.81-3.2.61-1.6-4.91.22-9.62 1.86-13.88 3.24-8.46-.6-13.78-6.56-18.67a2.63 2.63 0 0 1 -1.2-1.82c1-2.52 2.68-4.31 5.49-4.78a5 5 0 0 1 2.78 1.36 25.86 25.86 0 0 1 3.24 4.4c3 4.21 7.18 5.24 11.8 3.06 2.19-1 2.51-2.88 2.63-4.94.3-5.35-.57-10.63-1.5-15.83-1.76-9.83 2.58-17.51 8.19-24.69a8.27 8.27 0 0 1 10.43-2.31 35.39 35.39 0 0 0 9.73 2.83 20.27 20.27 0 0 1 1.89 10.09c-.23 6.29 1.19 12.45 1.24 18.72 0 3.41 1.63 6.34 3.88 8.88 1.76 2.2 3 4.77 5 6.83 2.28 2.41 4.91 3.24 8.09 1.83s4.8-3.63 4.32-7.42q-2.79-22.44-5.66-44.87c-.75-5.82-3.67-10.58-6.7-15.35a4.52 4.52 0 0 1 -.75-2.26z"
          fill="#2b084e"/>
    <path d="m297.8 107c-8.63-9.25-14.05-19.74-12.59-32.87l1.26-.75c3.88-5.49 9.49-5 14.23 1.18a37.44 37.44 0 0 1 1.79 9.16c.34 4.68 2.25 8.54 6.39 11.07 4.84 3.45 10.37 3.32 15.81 2.64 6.24-.78 12.34-10.3 12-18.14a20 20 0 0 0 -.66-3.92c-1.63-7-7.2-9.56-13.15-11.55-6.77-2.27-13.64-4.26-19.72-8.18-8.34-8-12.7-17.68-12.38-29.28.17-6.22 2.31-11.63 7.31-15.65 9-6.14 19-9.28 29.92-8.68 12.99.73 21.99 7.53 27.87 18.76.86 10-5.15 14.45-15.68 11.58a14.21 14.21 0 0 1 -6.06-6c-.05-7.2-4.65-9.15-10.83-9.75-5.33-.53-9.76 1-12.46 5.48-3.16 5.2-2.89 10.76.49 16a10.74 10.74 0 0 0 3.27 3.69c1.86 1.07 3.57 2.42 5.66 3.08 3.92 1.46 8.16 1.57 12.12 2.79 2.32.71 5 1 6.46 3.36 5.61 2.8 11 5.89 14.15 11.67 4.4 7.17 5.2 14.75 3.32 22.93-5 21.71-23.13 33.75-44.67 29.4-5.5-1.18-10.46-3.23-13.85-8.02z"
          fill="#fedd49"/>
    <path d="m29.15 81.45c2.44-2 5-2.92 8-1 4.78 4.55 8.78 9.88 14.38 13.55 2.54 1.34 4.5 3.7 7.49 4.26a10.79 10.79 0 0 1 3.41-.65c8.84.47 13.76-4.78 17.18-12 3.8-8 4.89-16.58 5-25.24.12-9.62.71-19.27-.84-28.86a32.9 32.9 0 0 1 -.22-5c-2-10-2.38-10.1-12.72-8.79-7 .9-14.11 1.79-21.15 2.74-2.4.32-4.25 1-5.39 3.61-3.14 7.11-6.66 8.27-14.31 5.21-4.92-3-7.7-7.5-9.25-12.91-.5-1.77-1-3.52.35-5.15 6.58-3.22 13.92-2.93 20.92-4 17-2.64 34.22-4.69 51.37-6.93 1.23-.16 2.63-.82 3.63.65 4.52 9.87 5.32 20.58 6.07 31.1 1.25 17.6 1 35.22-2.89 52.6-5.94 26.88-28.94 36.57-53.81 25-3.34-1.55-6.15-4-9.47-5.5a22.49 22.49 0 0 1 -9.82-14.13c-.69-3.08-.55-6.16 2.07-8.56z"
          fill="#fedd49"/>
    <path d="m29.15 81.45c-3.37 9.33 1.59 15.55 7.85 21.32 6.59 7.11 13.71 13.48 23.17 16.59a3.36 3.36 0 0 1 2.2 1.89c-1.81 3.64-1.33 7.18-.22 11a731.21 731.21 0 0 0 25 70.93c1.57 3.87 3.49 7.56 7.16 9.95 3.21 4.84 7.08 8.91 12.76 10.83-3.89 2.21-7.66 4.66-11.69 6.57-5.45 2.57-9.27 1.31-13-3.61-4-5.26-6-11.5-8.47-17.45-10.21-24.37-21.19-48.47-28.99-73.8-.6-1.94-1.83-2.48-3.57-2.88-17.35-3.93-26.67-16.56-33.71-31.48-2.33-4.93-.8-8.62 4.1-11.16 5.76-2.98 11.6-5.81 17.41-8.7z"
          fill="#2b084e"/>
    <path d="m497.38 143.16c-3.35-3.15-2.53-7.56-2.83-11.32-2-25.41-3.55-50.85-5.27-76.28a24.05 24.05 0 0 1 1.3-9.34c6-4 10.5-3.58 13.53 1.19 1.53 1.79-.15 5.64 3.79 5.86l9-3.28c7.64-5.33 19.68-1.38 24.55 8.06a25.86 25.86 0 0 1 1.62 4.15c3 8.7 2.6 17.72 2.33 26.7a31.49 31.49 0 0 1 -6.59 18.54c-6.94 9-16.49 12-27.58 8.31-3.39-1.12-4-.41-3.81 2.85.29 5.31-.25 10.65.79 15.93a10 10 0 0 1 .07 3c-.57 6.21-5.38 8.68-10.9 5.63z"
          fill="#fedd49"/>
    <path d="m160.94 96.15c2.91.07 5.91-.17 8.1 2.37 3.56 7.22-1.74 15.76-10.38 16.64a18.14 18.14 0 0 1 -13.81-4.61c-2.41-2-4.44-2.3-7.11-.55-8.88 5.79-17.8 5.59-26.66-.15a18.06 18.06 0 0 1 -7.26-10c-2.19-8-1.52-15.47 4.13-22a27.4 27.4 0 0 1 7.88-6.14c4.16-2 8.4-3.73 13.06-4.07 3.12-.26 6.18-1.11 9.38-.33 2.54.62 4.19-.51 4.42-3.28-1.06-5.64-4-8.73-9.15-9.48a10 10 0 0 0 -10.78 6.17c-2.11 4.74-5.35 6.89-10.46 6.34a6.19 6.19 0 0 1 -1.47-.42c-4.71-3.8-4.92-8-.73-14.13 9.88-8 21-10.7 33.34-7.38 3.55 1 6.87 2.37 8.58 6 6 7 4.7 15.24 4.06 23.33-.45 5.8-1.21 11.57-1.52 17.38-.27 5.2-.1 5.21 4.91 4.18a3.35 3.35 0 0 1 1.47.13z"
          fill="#fedd49"/>
    <path d="m279.33 96.49a7.41 7.41 0 0 1 6.67 2.42c2.92 5 2.73 7.6-.86 12.18s-8.3 6.2-13.69 4.67a19.06 19.06 0 0 1 -7.85-4.2c-2.37-2.19-4.44-2.12-7.1-.44-4.4 2.78-9.18 4.58-14.59 4.13a14.42 14.42 0 0 1 -10.31-5.25c-4.35-3-5.59-7.82-7.44-12.29-3.81-8.09-1.11-17.14 6.94-23.28a48.26 48.26 0 0 1 6.3-3.43 33.91 33.91 0 0 1 12.94-2.39c1.94.07 3.89-.24 5.85-.1 2.12.17 3.47-.65 3.57-3-.49-5.45-2-7.48-6.16-8.16-5-.82-7.21.38-9.67 5.42-1.75 3.59-3.88 6.62-8.54 6.19a5.46 5.46 0 0 1 -1.47-.46c-2.31-1.95-5.35-3.49-4.19-7.39 2.77-1.37 3.18 2.25 5 2.31.77.55.69-.62.47 0-.05.14-.18.07-.47-.09-2.5-1.43-3.84-3.49-3.34-6.43a2.8 2.8 0 0 0 -1.29-2.91c11.29-13.39 36-11.77 43.69 2.86 3.68 9.89.31 19.61-.67 29.39-.06.66-.28 1.3-.33 2-.26 3-2.27 6.31-.8 8.7 1.88 3.15 4.67-2.12 7.34-.45z"
          fill="#fedd49"/>
    <path d="m551.36 141.26c7.24-1.44 14.47-1.93 21.56.7 1.83.68 3.76 1.33 5 3 .78 2 3.47 2.65 3.52 5.13-.06.48-.24 1.05 0 1.44 2.49 4.34 2.5 8.81.85 13.41-1.38 2.49-3.74 2.27-6 2.21-3.13-.46-5-2.62-6.82-4.93-.27-.6 0 .21-.26-.41-3.23-8.08-7.35-10-15.79-7.37-1.24.39-2.43 1-3.79.84-3.78-1-6.9 2.5-6.29 7 .44 3.19 1.74 5.48 4.67 8.22-4.34-4.29-5.61-8.54-3.58-12.79.89-1.85 1.81-4.21 4.75-2.7.5 1 .11 1.92-.09 2.89-1.65 8 .48 11.06 8.81 12.64 5.64 1.23 11.54.75 17 2.75a18.38 18.38 0 0 1 5.3 2.59c1.87 3.15 6.17 5 5.2 9.68-3.23.73-3.38-3-5.27-3.57 5 5.14 5.62 12.67 1.55 20.18-.29.53-.93.86-.86 1.58a2 2 0 0 1 1.66-.89 1.32 1.32 0 0 1 1.07.91c-.6 5.9-5.08 8.43-9.68 10.32-10.44 4.3-21 4.47-31.57-.07-5.85-3.65-10.63-8-10.65-15.65 1.34-1.07 1.61-2.55 1.59-4.67-.24 1.9 0 3.45-1.47 4.38-2.19-.56-2.5-2.36-2.78-4.19a5.32 5.32 0 0 1 2.64-4.8 8.69 8.69 0 0 1 9.21-.08c2.51 1.63 2.64 4.84 4.55 6.89a11.45 11.45 0 0 0 4.26 3.23 40.43 40.43 0 0 0 4.66 1.68c8.27 2.42 12.21 1.17 17.68-5.6 1.74-3.88-.71-5.88-3.53-7.56-5.42-3.21-11.57-3.7-17.63-4.35a27.86 27.86 0 0 1 -6.8-1.19 17.29 17.29 0 0 1 -9.45-8.87 19.11 19.11 0 0 1 -1.07-18.24c3.49-7.78 9.49-12.31 17.85-13.74z"
          fill="#fe6666"/>
    <path d="m299.75 75c-4.09-5-7.38-5.46-13.28-1.63a65.3 65.3 0 0 1 -12.59-34.53c-.75-10.21 2.6-18.18 12.67-22.43 3.95-1.67 7.72-3.79 11.57-5.71-9.28 17.3-7.75 28.92 5.88 44.24 6 8.43 14.43 12.89 24.13 15.6 3.28.92 6.9 1.54 9.06 4.74 3.85 9.35-4.18 23-14.08 23.87-5.18.44-10.28.24-14.68-3.11a3.82 3.82 0 0 1 -1.43-3.04c-.3-6.86-4.23-12.23-7.25-18z"
          fill="#2b084e"/>
    <path d="m489.68 256c-7.85 5.19-16 9.46-25.89 8.23a31.54 31.54 0 0 1 -20.22-10.59q-13.95-15.56-28-31c-3.52-8.5-4.5-17.47-4.86-26.54a4.84 4.84 0 0 1 1.39-4.07c2.08-.37 2 1.42 2.19 2.5 1 6.05 4.39 10.5 9.23 14 8.7 12.66 17.89 14.69 31.41 6.7 2.69-1.59 4.82-1.79 7.1.48a17.67 17.67 0 0 0 8.71 4.59c4.35 1 8-.9 11-5 2.68-3.63 1.91-6.8-.65-9.93s-4.16-7.68-8.63-9.3c-1.42-.63-3-.91-3.92-2.4-.53-5 1.22-9.8 1.55-14.74a3.71 3.71 0 0 1 2.21-3.1c2.48.34 2.81 2.62 3.62 4.29 4.29 8.88 9.43 17.15 16.55 24.07a6.45 6.45 0 0 1 1.94 7.19c-2.33 7.17-5.51 13.9-10.4 19.67s-10.51 6.91-16.13 3.67c-3.42-3.34-4.62-8.64-9.43-10.76-3.38-1.32-7.15-3.4-10 .13s-.14 6.9 1.63 10c2.22 3.93 6.3 6.22 9 9.77 5.95 8.88 14.7 11.76 24.86 11.63 1.99-.04 3.99-1.17 5.74.51z"
          fill="#2b084e"/>
    <path d="m590.11 90c1.57-.07 3.1 0 3.78 1.77-1.27 13.91-14.45 26-27.79 25.5a12.19 12.19 0 0 1 -5.75-1.34c-7.9-6-9.07-14.77-9.63-23.77 0-5.92 0-11.83 0-17.75-.08-3.71-.21-7.42.86-11 .62-7.74.62-7.73-6.86-9.44a16.83 16.83 0 0 1 -3.3-1.1c-4.34-3.58-6.14-10.29-4-15.23 1.43-3.36 4.1-4 7.42-3.29 9.23 1.83 9.22 1.79 10.8-7.54.6-3.55.64-7.38 4-9.8 4.73-4.56 9.53-1.19 14.31-.1 1.26 6.18-1.12 11.86-2.69 17.57-1.12 4-1.31 6.82 3.81 7.28a3.84 3.84 0 0 1 2.1 1.29 3.36 3.36 0 0 1 .77.08c.92 2.09 3.71 2.74 4 5.29.42-1.18-1.87-3.24 1.16-3.57l.94 1c2.66 7.78.78 10.5-7.33 10.66-9.13.18-9.33.17-10 9.25a190.24 190.24 0 0 0 0 24.35c.2 3.35.38 7.11 4.31 8.8 3.87-.92 6.24-4 9-6.37 1.7-.61 2.87-2.3 4.82-2.38 1.37 1.45 4.46.32 4.9 3.78.57-1.69-.44-2.94.37-3.94z"
          fill="#fedd49"/>
    <path d="m371.77 112.11a48.77 48.77 0 0 1 -9.89-15.43c-3.5-2.92-2.83-7.09-3.15-10.91a29.86 29.86 0 0 1 .92-9.31c2-7.84 3.79-15.8 10.51-21.32 7.5-6.11 15.68-9.47 25.64-7.22a23.61 23.61 0 0 1 11.91 6.61 1.72 1.72 0 0 1 .9 1.18c3.84 10.43-.74 17-11.37 16.26a6.23 6.23 0 0 1 -2.71-1.49 10.26 10.26 0 0 1 -2.65-5.78c-.58-3.52-2.85-3.84-5.51-2.6-11.22 5.27-13.63 32.23-4.89 36.31a6.21 6.21 0 0 0 .93.37c4.72 2 8-.31 10.91-3.66 1.74-2 3-4.43 4.82-6.36 4.65-4.82 8.28-4.77 13 .21 4.11 9.36 2.5 15.41-6 20.77-7.36 4.62-15.11 8.26-24.26 6.89a14.88 14.88 0 0 1 -9.11-4.52z"
          fill="#fedd49"/>
    <path d="m181.64 111.12c-7.49-6.44-10.18-15.31-12.25-24.43-2.21-9.69-2.78-19.69-3.39-29.62a17.93 17.93 0 0 1 2-10.13c4.54-3.55 7.29-3 10.8 2 3.92 11.72 3.89 24.15 6.45 36.12a57.08 57.08 0 0 0 2 8.2c.61 1.64 1 3.68 3.51 3.46 4.56-2.73 6.58-7.41 8.72-11.83a221.37 221.37 0 0 0 11.4-28.78 20.33 20.33 0 0 1 3.31-6.65c4-3.49 7.59-2.85 10.93 1 2.72 4.4 2.7 9 1.37 13.87-3.81 13.79-8.36 27.29-17.49 38.67-5.05 6.27-11.29 10.67-19.93 10.42a12.58 12.58 0 0 1 -7.43-2.3z"
          fill="#fedd49"/>
    <path d="m84.65 25.77c2.06 16.73 2.93 33.45-.35 50.13a39.9 39.9 0 0 1 -6.3 15.6c-4.79 6.78-12 9.31-19 6.74 5.89-13 6-26.78 5.66-40.6-.14-5.81-1.05-11.6-1.28-17.41-.11-2.78-1.21-3.37-3.66-3-4.11.55-8.25.94-12.37 1.4.07-2.71 1.87-4.9 2.21-7.56.21-1.71 1.84-2.3 3.31-2.6a220.48 220.48 0 0 1 28.5-3.72 5.78 5.78 0 0 1 3.28 1.02z"
          fill="#2b084e"/>
    <path d="m551.92 92.94c1 8.14 2.12 16.24 8.91 22a13.43 13.43 0 0 1 2.69 2.86c3 5.46 7.61 7.46 13.64 6.8a4.72 4.72 0 0 1 3.29.83c-9.67 5.29-19.91 9.55-29.08 15.78-6.56 3.24-13.19 6.39-16.51 13.56-2.4.36-3-1.74-4-3.11a9.72 9.72 0 0 0 -7.45-4.39c-3.54-1.27-6.3 2.55-9.8 1.5-3.31-8-1.66-16.33-1.56-24.55 0-2 1.43-2.87 3.48-2.28a8.36 8.36 0 0 1 1.42.44c13 6.39 28.36-1.91 32-19.24.68-3.24.25-6.64 1.55-9.77a1.06 1.06 0 0 1 1.42-.43z"
          fill="#2b084e"/>
    <path d="m524 146.37c6.08-.35 7.41 5.42 10.86 8.45a18.87 18.87 0 0 0 1 18.19c-.94 5.81-2.45 11.48-3.83 17.19-1.18 1-2.32 2.11-2.15 3.89-1.16 7.95-3.25 15.57-8 22.25-3.76 7-6.6 14.42-11 21.09-5.36 8.2-11.71 15.19-21.26 18.56-8.19 1.51-16.12 1-23.39-3.46-3.49-2.15-7-4.42-8.28-8.74 3.22-1 5.75.36 8.16 2.24 8.2 3.57 22.56.06 30.44-9.83 9.82-12.31 15.9-26.39 20.62-41.21a7.4 7.4 0 0 0 0-3.44c.32-5.4 3.71-10.08 3.59-15.58 1.16-6.47 3.48-12.65 4.53-19.15.51-3.17.87-6.19-1.25-8.94a1.93 1.93 0 0 1 -.04-1.51z"
          fill="#bb1243"/>
    <path d="m419 115-1.8-1.34c-3.08-1.16-3.18-4-3.43-6.55a101 101 0 0 1 -.1-11.41c-.06-6.2-.2-12.4-.07-18.6-.09-3.45-.1-6.9 0-10.35s-.27-7-.05-10.45c.13-2 .12-4 2-5.37a5.37 5.37 0 0 1 3.68-2.21c2.38-.84 4.77-1.69 7.06.22 2 4.25.79 9.11 2.55 13.46 1.6-.25 2.46-1.6 3.69-2.38 3.39-3.14 6.67-6.42 10.65-8.81 3.44-2.07 7-3.82 11-1.18-.14 2.63 1 3.07 3.11 1.77a10.46 10.46 0 0 1 -.78 16.88c-2.29 1.54-4.31 1-6.52-.15-6.09-3.06-8.66-2.55-12.65 3-4.27 6-6.91 12.38-5.29 20.06a62.29 62.29 0 0 1 1.46 13.85c-.17 9.39-5.51 12.99-14.51 9.56z"
          fill="#fedd49"/>
    <path d="m211 145.28c3.54.14 5.05 3 6.71 5.36 4.14 5.94 8.58 11.73 11.28 18.56 1 4.1-1.59 7.64-1.69 11.66-.16 7.11.56 13.87 4.09 20.16-2.07 5.42-5.61 9.4-11.21 11.34-4.12 2.33-8.08 5-12.56 6.61-11.42 3.65-21.29.77-26.78-7.82a5.25 5.25 0 0 1 -1.06-2.75c1.57-2.27 3.61-1.06 5.37-.52 12.37 3.8 27.74-6 32.88-13.89a10.67 10.67 0 0 0 1.7-6.63c-.09-1.54-.26-3.07-2-3.66a4 4 0 0 0 -4.11 1c-3.4 2.86-5.76 6.91-10 8.78a38.39 38.39 0 0 0 -12.89 4.13c-5.18-.16-7.51-3.87-9.23-7.89-1.29-3 .52-5.1 3.38-6.14 5-1.81 10-3.55 15.15-5a49.49 49.49 0 0 0 8.93-3.12c9.93-4.9 12.26-13.23 6.53-22.7-1.49-2.44-4.25-4.19-4.49-7.48z"
          fill="#bb1243"/>
    <path d="m109 78.43c-5.53 6.35-6.08 13.63-4 21.41-.85 11-12.48 22-24.78 23.41-3.25.39-5.55-1.79-8.19-3a5.47 5.47 0 0 0 -5.15.17c-1.4.68-2.84 1.81-4.55.67-10.56-3.16-19.79-8.14-25.3-18.28 6.93 3.88 13.63 8 21.74 9.47 19 3.47 34.48-6 39.25-24.9 3-11.79 4-23.84 4.28-36 .43-17.1-2.3-33.77-5.3-50.44a37 37 0 0 1 9 20c1.31 10.51 2.7 21 4 31.51-.16 4.44-4.55 9.16.9 13.22-.26 4.33-.14 8.69-1.9 12.76z"
          fill="#fd6201"/>
    <path d="m385.55 239c-16.12 12-32.39 10.41-48.77.58-11-6.6-19.49-15.87-27.7-25.48a5.6 5.6 0 0 1 -2.09-4.36c-.24-5.15-1.29-10.23-1.26-15.38 0-3.2.36-6.4 3.95-7.88 2-.23 3.12 1.15 3.86 2.6 4.95 9.76 12.29 17.63 19.76 25.41 10.76 12 23.37 20.92 39.67 23.68a24.59 24.59 0 0 0 7.89.26c1.6-.25 3.27-.86 4.69.57z"
          fill="#2b084e"/>
    <path d="m268 146c3.71.55 4.94 3.84 7 6.24 2.2 2.55 3.25 6 6.28 7.86 1.6 0 2 1.3 2 2.35 0 5.77 1.6 11.44 1 17.23-1.78 3.19-1.1 6.17.82 9.05a82 82 0 0 1 1.87 17.46c-4.44 4.7-8.43 10-15.22 11.62-3.17-.18-5.08 2.83-8 3.17-11.53 3.08-22.45-1.8-25.86-11.55 1.26-2 3-.92 4.46-.54 7.88 2 15.16.42 22-3.62 3.73-2.2 6.87-5.23 10.09-8.09 2.75-2.44 3.73-5.79 3.43-9.49-.12-1.53-.2-3-1.76-3.86-1.81-1-3.19.1-4.49 1.16-3.48 2.82-6 6.71-10 8.91-4.26 1.38-8.3 3.33-12.55 4.74-2.59.3-4.43-1.13-6.15-2.75-5.24-4.92-4.59-8.69 2-11.58 4.42-1.93 9-3.47 13.58-5a42.87 42.87 0 0 0 9.94-4.57c7.3-4.67 8.8-11.38 4.82-19.4-1.66-3.17-4.89-5.47-5.26-9.34z"
          fill="#bb1243"/>
    <path d="m172.87 123c5.16 2.43 9.23 9.75 8.23 14.94-1.31 6.77-2.7 13.51-4.06 20.27a2 2 0 0 1 0 2.73 43.2 43.2 0 0 0 -8 26.57c-2.19 5-4.14 10.08-6.72 14.88-.86 1.59-1.51 3.34-3.34 4.16-4.59 6.18-8.32 13.29-16.57 15.59-5.74.9-11.08-3.62-12.29-10.39 9.85-1.53 14.83-8.75 19.24-16.57 6.64-11.83 10.64-24.73 14.45-37.68 3-10.2 5.91-20.45 7.22-31.07a4.74 4.74 0 0 1 1.84-3.43z"
          fill="#bb1242"/>
    <path d="m412.91 192c-2.16 6.09.09 12 .62 18 .38 4.24 2.67 8.18 2.09 12.59l-4.17 1.48c-6.61 2.08-10.49-.45-13.65-8.88.64-1.34 1.93-1.7 3.19-2.13 5.31-1.78 5.31-1.78 2.87-7.21a12 12 0 0 1 -1.13-5.41c-2.38-27.82 3.71-54.56 10.37-81.23 5.52 2 10 10.25 8.64 15.45-1.59 6-3.55 12-3.66 18.35l.18.79c-.33 9.15-2.62 18.05-3.33 27.16a22.58 22.58 0 0 0 -.14 4.93c-.19 2.17.07 4.47-1.88 6.11z"
          fill="#bb1242"/>
    <path d="m419 115c14.1-.57 14.29-.42 12.57-16.91-.7-6.65-3.28-13.27.35-19.94 2.14-3.94 3.83-8.1 7.3-11.17 3-2.67 6.21-3 9.55-.85 2.58 1.66 4.77 4.44 8 .85 2.95-3.24 4.17-8.45 2.33-11.95a5.35 5.35 0 0 0 -3.15-3c-.82.11-1.16-.32-1.22-1.07.1-1.8-2.72-3.47-.24-5.38 3.59 0 7.27.51 10.19-2.51a10.11 10.11 0 0 0 2.99-7.07c0-1.49-1.09-3.37 1.17-4.28 1.42 2.43 2.73 4.93 4.29 7.27 3.07 4.57 3.45 9.19.72 14-2.3 2.12-6.49.23-8.09 3.83-3 2.07-.14 4 .17 6-1 4.56.7 9.42-1.59 13.83-2.55 2.17-4.74 2.71-7.72.07-3.93-3.46-8-3.12-11.34 1-5.5 6.77-9.94 14-7.78 23.56 1.09 4.83 1.35 9.85 1.81 14.8.3 3.22.25 6.42-3.7 7.72-5.78 1.9-10.11 1.07-12.57-2.56-1.39-2.03-2.69-4.14-4.04-6.24z"
          fill="#fd6201"/>
    <path d="m385.55 239c-22.86 3.13-39.08-8.36-53.32-24.21 2.56-1 4 1 5.69 2.2 8 5.52 16.47 10.05 26.28 11.34 8.44 1.1 16.27-.4 22.54-6.65 2.73-2.72 2.63-6 .26-8.4-2.56-2.63-5.79-2.61-8.78.07-.74.66-1.39 1.43-2.1 2.13-3.85 3.77-12.6 3.64-17-.24.7-.55 3.69.88 1.74-1.94-1.49-2.15-3.1-4.19-4.66-6.28 1-.89 2.16-.71 3.29-.56 9.94 1.27 18.1-2.62 25.45-8.78 5.17-4.33 6.52-3.95 7.83 2.63.61 3.05 1.75 6.07 1.14 9.28a4.69 4.69 0 0 0 .37 5.44 56 56 0 0 1 4.75 7.43c1.5 3.1 2.2 6.23-1.05 8.83a36.69 36.69 0 0 1 -12.43 7.71z"
          fill="#bb1242"/>
    <path d="m21.08 11.26c1 6.65 3.11 12.69 8.85 16.83a29.61 29.61 0 0 0 14.88 11.73c-6.81 3.48-13.45 7.18-20.38 10.36-4.74 2.16-8.94 0-11.95-3.7-5.56-6.74-8.31-15.07-12.16-22.78-1.08-2.16.82-2.5 2.06-3.12 6.23-3.13 12.47-6.22 18.7-9.32z"
          fill="#2b084e"/>
    <path d="m464.34 76.65q.24-7.31.47-14.6c-.47-1.68-1.2-3.37.23-5 .55-6.53 5.58-3.35 8.81-4.06l2 .73 1 1.14c3.8 9.34 3.82 19.38 5.29 29.15 1.08 7.2 1.82 14.46 2.52 21.71.79 8.27-5.87 13.23-13.69 10.24-3.18-2.27-4.43-5.46-4.67-9.28-.53-9.99-1.3-20.01-1.96-30.03z"
          fill="#fedd48"/>
    <path d="m361.06 76.08c-1.25 6.93-1.45 13.82.83 20.6-.7 1.67-1.34 3.36-2.08 5-5.37 12-13.49 20.52-27.27 22.17-13 1.55-24.15-1.58-32.25-12.54a44.38 44.38 0 0 1 -2.49-4.31c9.31 7.23 19.83 8.93 31.09 6.44 19-4.19 31.73-27.75 25.24-46.23-.52-1.47-2.09-2.76-1.13-4.61a2.87 2.87 0 0 1 .64.51c4.44 3.21 6.06 8.02 7.42 12.97z"
          fill="#fd6201"/>
    <path d="m181.64 111.12c13.09 3.58 22.08-2.35 29.08-12.67 7.86-11.6 12.12-24.67 15.16-38.18.74-3.29-.09-6.6-.78-9.85 1.49 1.73 2.62 3.83 5 4.6 1.19 1.91.44 3.86.15 5.8-.76 3.41 2.17 4.71 3.85 6.73.67 2.87-.37 5.27-2.06 7.5-8.26 5.58-8.84 13.83-7.87 22.63-3.74 6.81-7.53 13.58-13.52 18.79-10.65 9.29-22.41 7.15-29.01-5.35z"
          fill="#fd6301"/>
    <path d="m585 186.07c.65-4.34-3.25-6.16-5.06-9.14 1.68-.87 2.76-.34 3.3 1.42 2.62 3.63 5.27 7.23 7.83 10.89a22.4 22.4 0 0 1 -8.21 33c-1.75.91-3.54 1.76-5.31 2.64a31.63 31.63 0 0 1 -28.6-2.7c-3.42-2.05-7.21-4.33-6.68-9.4 10.27 4 20.62 4.36 30.88.19 4.65-1.88 8.87-4.5 9.74-10.15 0-.24 0-.48 0-.72 2.29-4.91 2-10.16 2-15.36z"
          fill="#bb1243"/>
    <path d="m542.27 212.82c4.41 10.15 17 13.53 27.4 12.74 2.62-.2 5.25-.43 7.88-.64-12.26 8.54-25.29 10.78-39.39 5-6.87-2.83-11.19-8.59-16.25-13.54q4-11.13 8-22.25c.65 1.35.82 3 2.27 3.86.82 6.59 4.65 11.26 10.09 14.83z"
          fill="#2b084e"/>
    <path d="m159 206.56 9.12-18.77c2.69 5.63 4.28 11.89 9.31 16.21 1.22 1.05 2.82 1.9 3 3.81 6.08 11.08 15.81 13.23 27.28 11.17-6.17 3.86-12.34 7.7-19.86 8.38-9 .82-16.25-2.06-21.35-9.74-2.5-3.7-5.05-7.38-7.5-11.06z"
          fill="#2b084e"/>
    <path d="m214.17 49.46c-4.26 14.25-9.08 28.28-16.34 41.33-1.59 2.84-3.18 5.83-6.46 7.23-2.4-2-2.17-5-2.65-7.72-1.25-7-2-14-2.95-21-.28-2-1.2-4.24.6-6.1z"
          fill="#2b084e"/>
    <path d="m335.07 25.78a18.18 18.18 0 0 0 4.77 5.22 20.43 20.43 0 0 1 3.25 3.65 11.31 11.31 0 0 0 10 6.09 4.06 4.06 0 0 1 2.72 1l-17 9.21-19.4-5.25c-2-1.94-4.54-3.47-5.26-6.47-.92-5.7 1.19-10.16 6-13s9.85-3.98 14.92-.45z"
          fill="#2b084e"/>
    <path d="m44.81 39.82c-7.78-.33-12.17-5-14.88-11.73 3.44 1.18 6.91 3 10.33.08 1-.85 2.53-2 2.49-3-.23-6.68 4.74-5.81 8.74-6.3 8.4-1.05 16.79-2.25 25.22-2.95 6.83-.58 6.85-.3 7.48 6.37.11 1.15.31 2.3.46 3.45a305 305 0 0 0 -30.57 3.71c-2.36.4-4 .61-3.34 3.87.41 2.15-1.77 3.76-3.37 5.23z"
          fill="#fd6301"/>
    <path d="m559.62 17a53.76 53.76 0 0 0 -3.51 16.89c-.21 3.36-1.19 5.36-5.14 3.64a43.53 43.53 0 0 0 -6.2-1.69c-5.3-1.41-6.42-.58-6.48 5.07 0 4.1-.6 8.41 3.73 11.06 3.42 3.83 6.11 8.4 10.85 10.93q-.51 5.75-1 11.49c-1.25 2.1 1.29 5.14-1.67 6.83-2.66-5.83-4-12.2-7.3-17.76-.34-.57-.59-1.17-1.23-1.46-3.47-10.66-12-14.81-24.73-12-.26-2.09 1.19-2.92 2.71-3.69 2.22-1.13 4.38-2.4 6.67-3.33 5.56-2.24 10.21-5.09 10.83-11.91a6.24 6.24 0 0 1 3.71-5c6.27-3 12.51-6.07 18.76-9.07z"
          fill="#2b0a4e"/>
    <path d="m311 186.73c-3.61.54-3.78 3.39-3.76 6a142.33 142.33 0 0 0 1.83 21.31c.14 2.11.13 4.25.45 6.33 1.23 8 1.25 8.06-6.16 11.45-5.79 0-10-4.15-10.26-10.18 7-4.06 7-4.06 5.87-12.31-.29-2.13 0-4.33-.8-6.4a15.35 15.35 0 0 1 -.39-3.16 84.84 84.84 0 0 0 -.78-11.87c-.63-4.55-.31-9 3.41-12.44 2.29-2.13 4.53-2.45 6.05.56 1.7 3.46 5.11 6.26 4.54 10.71z"
          fill="#bc1343"/>
    <path d="m572.05 100.2c-3.09 1.7-4.26-.66-5.17-2.74a23.64 23.64 0 0 1 -1.87-9.2 227 227 0 0 1 .9-29.84c.3-2.67 1-4 3.87-3.61a47.61 47.61 0 0 0 5.48.1c9 .08 9.24-.19 8.8-9.14 2.15 3.47 4.51 6.82 6.36 10.44 1.67 3.25.77 6.34-1.91 8.86-2.68.71-5.4 1.62-8.18 1.21-3.91-.57-6.27.61-6.8 4.76a13.66 13.66 0 0 1 -.89 2.27 75.82 75.82 0 0 0 -.85 23.24c1.62 1.11 1.21 2.36.26 3.65z"
          fill="#fd6302"/>
    <path d="m238.3 208.86c4.52 8.3 11.46 12.34 20.94 12 1.48-.05 2.95.1 4.43.15-6.35 4.4-13.1 7.77-21.05 7.78-8.62 0-14.69-4.37-19.15-11.41-1.06-1.68-2.16-3.33-3.25-5 4.15-3 7.21-7.07 10.76-10.66a16.66 16.66 0 0 1 7.32 7.14z"
          fill="#2b084e"/>
    <path d="m580.45 125.48c-12.05 1.35-14.85-.15-19.62-10.49 10.81 3.44 22.65-2.22 28.73-13.84 1.59-3.05 2.9-6.25 4.33-9.38 1.67 4.17 6.47 7.18 5.25 12.38a29.79 29.79 0 0 1 -11.37 17.12 62.07 62.07 0 0 1 -7.32 4.21z"
          fill="#fd6201"/>
    <path d="m453.73 46.05c-.31 1.81 3.12 2.72 1.18 4.92h-.17c-3.17-2.42-6.23-1.21-9.2.38-4.69 2.55-8.46 6.28-12.54 9.65-4.3-2.49-4.65-7.47-7.05-11.16-2-1.7-4.41-1.17-6.72-1.06 10.19-7.35 20.95-13.82 31.59-20.48a2.48 2.48 0 0 1 .18 1.91c-2.6 5.42-1.32 10.15 2.47 14.47a2 2 0 0 1 .26 1.37z"
          fill="#2b094e"/>
    <path d="m292.92 222c2.87 3.93 4.82 8.84 10.45 9.84-3.6 2-7.14 4.16-10.81 6-4.95 2.53-8.09 1.83-11-2.85-3.49-5.62-6.58-11.47-9.85-17.23l14.29-10.83a2.39 2.39 0 0 1 1.19 2c.01 5.22 2.54 9.29 5.73 13.07z"
          fill="#2b084e"/>
    <path d="m107.15 224c-7.19.41-9.91-5.09-13.13-9.93 10.15-2 16.19-8.47 20.15-17.64 1.53-3.54 3.35-3.52 5.09-.17s4.89 6.28 5.53 10.37c-1.5 5.68-4.18 10.52-9.62 13.36-2.7 1.26-5 3.34-8.02 4.01z"
          fill="#bb1242"/>
    <path d="m453.73 46.05c-6.48-6.46-6.94-9.22-2.93-17.8 8.14-5.23 12.94-4.3 18 3.49-1 1.31.09 2.53.17 3.8.55 8.14-6.64 13.11-15.24 10.51z"
          fill="#fddc49"/>
    <path d="m115.17 220a52.55 52.55 0 0 0 9.06-13.19c2.91.71 4.42 2.92 5.73 5.34 1.61 2.07 3.18 4.17 4.84 6.2 1.95 2.38 4.27 4.1 7.58 3.84-3.42 2-6.79 4-10.28 5.89-6.17 3.26-9 2.6-13.14-2.88-1.29-1.75-2.53-3.51-3.79-5.2z"
          fill="#2b094e"/>
    <path d="m160.94 96.15a7.77 7.77 0 0 1 -1.72.88c-2.06.47-3.2 4-5.38 2.57s-1-4.3-.81-6.5c.55-8.22 1.32-16.44 2-24.66.51-6-.18-11.87-3-17.32l2.51 2.33c9 11.19 8.7 24.08 6.82 37.27-.25 1.79-.28 3.62-.42 5.43z"
          fill="#fd6302"/>
    <path d="m279.33 96.49a16.5 16.5 0 0 0 -5.07 3c-.92.91-2.11 2-3.5 1.13s-.93-2.37-.75-3.62c1.06-7.69 1.89-15.43 3.43-23 1.17-5.73-.11-11.36.33-17 3.47 6 7.75 11.68 7.56 19.13q-1 10.14-2 20.36z"
          fill="#fd6202"/>
    <path d="m581.24 149.85c-.62-1.95-3.48-2.38-3.29-4.88 7.45 4.67 11.73 12.07 16 19.26 2.88 4.79.08 9.06-6.79 11.76-5.65.93-10.05-2.91-11.27-9.84 2.22-.32 4.74.32 6.34-2 3.7-5.04-.23-9.56-.99-14.3z"
          fill="#bc1443"/>
    <path d="m186.37 63.16q2.49 17.43 5 34.86c-3.61 2.3-4.31-.86-5.12-3-2.23-5.91-2.93-12.2-4-18.38-1.46-8.78-1.84-17.74-4.09-26.41-.1-.36.36-.86.56-1.3 2.71 4.67 5.77 9.13 7.65 14.23z"
          fill="#fb6204"/>
    <path d="m575.94 166.15c3 4.13 4.77 9.7 11.27 9.84l-4 2.36-3.31-1.42c-7-4.43-15.26-3.32-22.88-5-3-2.08-2.12-4.43-.39-6.73 3-4 8.49-5.33 13.6-3.35 1.77 1.64 3.3 3.56 5.71 4.3z"
          fill="#2b084e"/>
    <path d="m355.82 41.74c-8.71 1.46-13.13-3.46-16-10.73a15.33 15.33 0 0 0 9.19.45c5.71-1.42 5.94-6.23 6.85-10.66 1.49 2.55 3 5.08 4.45 7.66 3.53 6.36 2.23 10.12-4.49 13.28z"
          fill="#fd6303"/>
    <path d="m577.15 43c-9.33-.75-9.28-.74-7.13-9.31 1.4-5.59 2.61-11.22 3.91-16.83 7.53 7.93 6.5 16.9 3.22 26.14z"
          fill="#fd6807"/>
    <path d="m361.06 76.08-7.42-12.95c5.25-3.19 10.48-6.43 16.52-8-4.01 6.57-7.63 13.29-9.1 20.95z" fill="#2c0b4f"/>
    <path d="m398 231.27c2.67-5 .14-8.77-2.72-12.54-1.19-1.57-2.18-3.29-3.38-4.84-1.66-2.12-.54-3.23 1.33-4.16 2.45 1 3.13 3.52 4.64 5.33a40.32 40.32 0 0 1 3.42 4.21c2.39 3.82 5.32 6.24 10.15 4.81a64.35 64.35 0 0 1 -13.44 7.19z"
          fill="#2b094f"/>
    <path d="m572.64 73.31c-.19-8.75-.19-8.76 7.9-8.55 2.66.07 5.32.2 8 .31-5.02 3.31-10.54 5.67-15.9 8.24z"
          fill="#250950"/>
    <path d="m415.54 50.94q-.26 8-.49 16c-2.77-.06-3-2.6-3.94-4.27a45.19 45.19 0 0 1 -3.39-7.5.41.41 0 0 0 0-.6z"
          fill="#280d4f"/>
    <path d="m230.24 60.82c-2.35-1.87 0-3.87-.15-5.8a3.09 3.09 0 0 1 0-1c1 .51 3.57-.67 2.85 1.36-2 5.64 1.15 7.46 7.27 8.47-5.7 2.22-7.66-.85-9.97-3.03z"
          fill="#fdf6d6"/>
    <path d="m583.12 44.81c-1.83 2.27 1.45 5.39-1.63 7.83-1-2.7.09-6.7-4.64-7.09-1.4-.11.95-1.47 1.07-2.46a9.34 9.34 0 0 1 5.2 1.72z"
          fill="#fef4c6"/>
    <path d="m51.53 94c-6.36-2.84-10.37-8.21-14.42-13.52 5.56 3.68 9.49 9.13 14.42 13.52z" fill="#fe974b"/>
    <path d="m590.11 90c1.34 2.22 2.09 4.41-1.26 7.17 1.87-4.86-3.18-4.34-3.88-7.09 1.73.65 3.4-2.08 5.14-.08z"
          fill="#fef3c6"/>
    <path d="m572.05 100.2c-.08-1.22-.17-2.43-.26-3.65l8.36-4.09a19.26 19.26 0 0 1 -8.1 7.74z" fill="#342656"/>
    <path d="m507.9 53.27c-2.7 2.25-4 1.79-3.85-1.9.07-1.31 0-2.64.06-4 1.96 1.54 2.32 4.08 3.79 5.9z" fill="#f76b1e"/>
    <g fill="#fe6666">
        <path d="m130 212.11c-2.53-1.11-3.89-3.48-5.73-5.34l-7.63-12.56c-5.15 9.54-8.94 20.47-22.58 19.83a11.88 11.88 0 0 1 -6.08-6.31 694.75 694.75 0 0 1 -28.37-79.88c-1-3.47 1.59-4.66 2.77-6.8 3.31-.17 5.71-4.5 9.59-2.11 2.85 1.81 4 4.76 5.22 7.69 6 15 9.88 30.69 14.93 46a115.62 115.62 0 0 0 4.68 12.61c.7 1.53 1.24 3.77 3.88 2.56 4.08-3.55 5-8.73 7-13.35 3-7 5.27-8.31 13-7.35 4.7 1.93 5.51 6.64 7.39 10.54 1.28 2.65 1.66 5.69 3.11 8.27.93 1.66 2 3.82 4.46 1.69 4.48-10.57 6.71-21.82 10.1-32.72 2.74-8.85 5.16-17.81 7.8-26.7.7-2.37 1.35-4.79 3-6.79 4.91-3.76 10.21-3.57 15 .54l1.46 1.07c-3.81 24-10.33 47.2-20.55 69.29a60.05 60.05 0 0 1 -8.56 13.38c-3.72 4.33-8.03 7.08-13.89 6.44z"/>
        <path d="m292.92 222c-4.37-1.47-5.86-5-6.43-9.13-.27-2-.36-4-.53-6l-1.95-19c-1.43-2.16-2.36-4.38-.91-6.91q-.9-10.47-1.81-20.92c-.71-8.25-1.44-16.51-2.11-24.77-.64-7.75-.32-8.15 7.52-9.74 2.78-.57 5.57-.84 8.27.42 1.59 1.83 1.24 3.48-.43 5-2.76.87-2.55-4.11-4.56-3.21 6.5 5.76 1.3 13.72 3.18 19.26.58-3.05-1.13-7.28.86-11.22 2.71.29 2.26 2.53 2.34 4.17.29 6 1.48 11.89 1.18 17.91-.06 1.22-.28 2.63.83 3.8 2.45-1.63 3.38-5.1 6.74-5.54 4.07-4.38 8-8.92 12.24-13.11 4.87-4.79 10.53-7.57 17.59-4.95a5.23 5.23 0 0 1 2.09 1.33c2.57 2.7 6.32 5 4.62 9.59-1.77 4.77-5.82 6.89-10.54 7-5.17.12-9.81 1.09-13.9 4.43-4.71 3.84-4.9 5.34-1.35 10.16 2.42 3.29 5.14 6.48 5.73 10.75-.64.79-1.9 1.17-1 2.75 6.64 11.18 13.49 22.15 21.15 26.61-5.87-3.15-12-12.07-17.82-21.32-1.4-2.24-4-4.17-3-7.43 2.59-.63 3.26 1.45 4.34 3 5.14 7.39 9.94 15 16.71 21.14a44 44 0 0 0 17.1 9c3.78 1.39 7.78 1.24 11.68 1.79 2.84.41 3.65-1.88 5-3.43 2.89-3.36 6.26-5.13 10.48-2.79 5 2.77 5.36 8.31.79 12.51-6.75 6.21-15 7.49-23.71 6.23-10.41-1.38-19.31-6.38-27.76-12.49-1.06-.78-2.21-1.42-3.32-2.12a96.57 96.57 0 0 1 -21.22-28c-1.82-3.33-3.74-6.61-5.4-10-1.17-2.38-2-2.83-4.19-.78-4.06 3.75-3.57 8.38-3 12.91a62.46 62.46 0 0 1 .54 11.34c-1.71 4-1.13 8.15-.49 12.09.46 2.86-.13 4.72-2 6.54 1.86-1.77 2.79-3.54 2.07-6.46s-1.37-6.47.64-9.51a45 45 0 0 1 1.86 13.1c.04 5.13-4.48 5.2-8.12 6z"/>
        <path d="m397.88 215.06c-2.69-.78-3.48-3.22-4.64-5.33-.94-4.82-1.87-9.64-2.91-15-10.13 9.08-20.24 16.12-34.1 12.27-4.64-2.62-7.31-6.82-8.69-11.73-2.42-8.57-3.56-17.37-1.29-26.12 4.76-18.32 22.64-26.1 39.7-17.5 5.31 2.67 5.33 2.67 6.12-3.34 1-7.73 2-15.46 3-23.2-2.1-3.86.1-6 3.28-7.29a16 16 0 0 1 13.42.33c.45.36.9.72 1.36 1.07 1.52 2 .22 3.93-.27 5.71-5.25 18.94-7.12 38.44-9.63 57.83-.81 6.16 1.17 12.24.85 18.4-1.49 1.47-.81 3-.19 4.59a4.33 4.33 0 0 1 .21 1.47c.5-.35.45-1.11 1.07-1.37 2.86 6.26 2.47 7.06-4 8.33-1.12.22-2.17.58-3.29.88z"/>
        <path d="m180.38 207.81c-6.81-5-11.51-11.32-12.31-20-1.58-11.25 3.27-20.54 9-29.57 2.21-2.21 4.3-4.57 6.66-6.62 8-6.93 17.1-9.1 27.34-6.32 3.89 4 6.93 8.37 8.35 13.9 1.58 6.13-.52 10.79-5.08 14.56-4.05 3.36-9 4.83-14 6.26-5.26 1.52-10.43 3.34-15.66 5-2.8.87-3.25 2.61-1.89 5 2 3.35 4 6.58 8.46 6.93 4-1.25 7.86-3 12-4 3.12-3 6.3-5.86 9.34-8.9 1.68-1.67 3.55-2.62 5.81-1.77s2.71 3.05 2.8 5.34a12.87 12.87 0 0 1 -4.25 10.23c-10.43 9.72-21.95 15.38-36.57 9.96z"/>
        <path d="m238.3 208.86a34 34 0 0 1 -7.3-7.16c-7.26-10.44-6.19-21.37-1.95-32.5a50.86 50.86 0 0 1 11.3-16.32c7.95-7.36 17.15-9.79 27.66-6.87a47.81 47.81 0 0 1 6.35 8.87c4.61 8.68 2.28 16.57-6.24 21.59-6.36 3.75-13.73 4.93-20.29 8.14-2.76 1.35-7.88 1-7.38 5.11s3.93 7.57 8.87 8.14c4.41-.91 8.35-3 12.36-4.89 3-3.08 6.11-6.12 9.09-9.25 1.54-1.61 3.33-2.33 5.4-1.6s2.82 2.55 3 4.74c.23 3.44 0 6.9-2.39 9.44-8.78 9.41-21.46 19.35-38.48 12.56z"/>
    </g>
    <path d="m231.6 110c9.31 6.1 18.24 5 26.67-1.7 2-1.62 3-1.1 4.32.62a16.6 16.6 0 0 0 6.87 4.82c4.59 2 9.11 2.25 13-1.45s6.13-7.9 3.52-13.35c3.73 3.47 5.85 8 7.86 12.52 1.73 3.86-1.08 7-3.34 9.84-2.92 3.65-7 4.23-11.33 3.2-3.44-.83-6.76-2.41-8.84-5.28s-3.41-2.16-5.75-.49c-10.61 7.6-21.31 6.66-28.94-2.45a57.3 57.3 0 0 1 -4.04-6.28z"
          fill="#fd6201"/>
    <path d="m171.42 121.94c-4.82-1.26-9.65-3.7-14.47 0a3.29 3.29 0 0 1 -3.66-.92c-3.31-3.78-6.37-2.35-10-.34-11.67 6.37-23.29 3.38-30.85-7.61-.9-1.32-2.17-2.61-1.39-4.49 9.92 6.17 19.51 5.59 28.73-1.47 1.73-1.32 2.66-1 4 .61 2.27 2.74 5.43 4.23 8.75 5.52 9.13 3.55 19.48-5.07 16.54-14.75 3.14 3.29 5.23 7.31 7.09 11.33 2.43 5.35-1.94 8.55-4.74 12.12z"
          fill="#fd6201"/>
    <path d="m321.12 182c-1.24-4.81-4.46-8.44-7.58-12-2.61-3-2.6-5.38.22-8.08 4.43-4.23 9.09-7.75 15.76-6.85a9.92 9.92 0 0 0 6.2-1.33c6.12-3.32 6.8-7.63 1.95-12.7-.92-1-1.82-1.92-2.72-2.88 7.94 3.44 11.51 10.74 14.6 17.92 1.66 3.86-5.24 9.38-11 8.82-6.93-.66-11.68 2.59-16.16 7.16-2.16 2.2-2.22 3.94-.37 6.38 6.61 8.73 11.77 18.53 19.56 26.39.31.31.34.9.49 1.36-6.45-3.69-9.77-10.21-14.24-15.69-2.29-2.8-3.42-6.52-6.71-8.53z"
          fill="#bb1242"/>
    <path d="m411.74 118.15c-3.08 1-6.1-.55-9.21-.12-4.26.6-7.81 1.73-7.49 7.08-10.89 1.27-18.41-3.49-23.27-13 10.88 5.8 21.09 3.58 31.08-2.43 9.35-5.68 11.15-10.68 7.15-20.68 4.68 0 3.44 4.46 5 6.78.91 6-1.39 12.29 2.18 17.92a20.91 20.91 0 0 1 -5.44 4.45z"
          fill="#fd6201"/>
    <path d="m294 131.25c1.06-1.61 1-3.42 1-5.23 5.15 3.1 8.42 7.46 8.94 13.59.46 5.53-.73 11.18 1.2 16.6l-7.79 9.17c-2.24-10.36-.71-20.19-3.2-29.56a3.29 3.29 0 0 1 -.15-4.57z"
          fill="#bd1645"/>
    <path d="m522.06 175.8c.27 5.78-3.2 10.68-3.83 16.25-.78 7.38-4.29 13.84-7.13 20.47-4.26 10-9.3 19.63-17.33 27.17-7.75 7.28-17 9.81-27.49 7.09l-8.26-3a28.8 28.8 0 0 1 -10.42-11.78c-1.45-3.15-2.88-6.3-.13-9.23s6.1-1.94 9.34-1a10.53 10.53 0 0 1 2.19 1.23c3.49 3.34 4.73 8.56 9.24 11.05 5.47 3.21 10 1.09 13.89-2.82 6.07-6 9.17-13.74 11.73-21.73.83-2.58-1-3.66-2.39-5-8.56-8-14.28-17.87-18.44-28.71-4.57-4.64-5.78-10.39-5.55-16.64-.5-2.57-1-5.14-1.5-7.72-1.18-6.32.48-8.29 7.07-8.42l2-.07c1 .71 2.07 1.38 1.41 2.89-1.6 1.49-2.77-1.24-4.4-.5 2.26.17 3.4 2.76 5.77 2.38 2.52 1.52 3.09 4.21 3.91 6.68 3.13 9.42 6.3 18.82 10.65 27.78 1.67 3.44 3.37 6.82 6.85 8.83 2.88-1.86 3.77-5 4.68-7.95 3.12-10.12 6-20.33 8.91-30.5a2.1 2.1 0 0 1 1.17-2.74c2.47-3.73 6-4.21 10.06-3.45v.46c3.3 4.73 1.74 9.67.63 14.6-1.52 6.71-3.62 13.25-5.82 20.11 1.13-2.1.31-4.9 3.19-5.73z"
          fill="#fe6666"/>
    <path d="m412.91 192q.49-3 1-6c-.72-3.91 1.48-6.61 4.11-8.81a34.65 34.65 0 0 1 10.82-6.58c3.31-1.47 6.9-1.74 10.38-2.49 2.45-.54 5-.34 7.44-.44 1.69-.07 3.42-.11 3.87-2.28-2.35-9.4-12.57-12.84-19.75-6.64-1.1.95-1.81 2.47-3.54 2.54-6.85-1.81-6.86-1.82-5.61-11.08 8-8 23.85-9.43 33.44-3.08 7.47 5.09 10.35 12 9 21-1.08 7.36-2.59 14.71-2.59 22.21 0 1.63-.35 3.32.58 5.08 2.5.34 4.33-3.45 7.16-1.47l3.77 1c2.8 1.84 5 4.18 3.8 7.76s-2.45 7.33-7.18 7.71c0-2.21 0-2.21 1.72-4.59-1.74 3.61-5.61 5-10.5 4a4.32 4.32 0 0 0 -3.26.76 4.08 4.08 0 0 1 -4.46-1.5c-2.53-3.16-4.95-2.3-7.71-.38a22.35 22.35 0 0 1 -14.1 4 11.83 11.83 0 0 1 -8.47-3.55c-6.47-3.9-9.54-9.77-9.92-17.17z"
          fill="#fe6666"/>
    <path d="m514 149.82-1.18 2.74c-5.47 1.6-9.91.9-12.29-5.14-.63-1.58-2.05-2.85-3.1-4.26 7.56 1.36 10.29-1.07 9.4-8.77-.82-7.13-.6-14.24-.75-22 5.8 2.64 11.3 4.29 17.19 3.33 11.14-1.81 19.89-12.61 20.85-26 .66-9.33.39-18.62-2.4-27.67 5.67 5 7.7 11.6 8.6 18.75a26.3 26.3 0 0 1 1 12.39c-.19 7.21-1.16 14.2-4.93 20.58-6.47 11-18.42 15.08-30 9.84-3.31-1.49-3.56-.48-3.41 2.39.39 7.88.66 15.85 1.02 23.82z"
          fill="#fd6301"/>
    <path d="m471.05 116a36.9 36.9 0 0 0 4.47-.13c5.73-.82 8.36-4.25 7.69-9.6q-3.21-25.67-6.28-51.37a32.09 32.09 0 0 1 7.89 17.36c1.82 15.36 3.84 30.69 5.83 46 .56 4.32-2.92 5.23-5.58 6.57-3.67 1.85-7.24 1.28-9.84-2.06a69.93 69.93 0 0 1 -4.18-6.77z"
          fill="#fc6202"/>
    <path d="m469.22 193.93a10.08 10.08 0 0 0 -5.88 3.42c-.61.72-1.32 1.67-2.46 1.2s-.89-1.66-.93-2.6c-.26-6.63.62-13.17 1.53-19.71.72-5.22 2-10.43 1.4-15.72-.65-5.53-4.1-9.62-7.84-13.43 3.9.6 5.41 4 7.71 6.52 1.65 1.79 2.11 4.57 4.71 5.55 1.68 5.61 3 11.34 5.55 16.64-3.22 3.56-1.38 8.28-2.8 12.28a32.06 32.06 0 0 0 -.99 5.85z"
          fill="#bb1342"/>
    <path d="m426.83 160.88c9.66-9.94 21.49-8 25.17 4-4.59.64-9.61 0-12.95 4.37l-10 2.56c-4.14-2.57-6.85-6.67-10.34-9.93-2.37-2.23-1.14-5.9-.55-9v.07c1.28-.34 1.19-2.4 2.84-2.25.42 1.13 0 2.23-.06 3.36-.56 5.32.68 6.72 5.89 6.82z"
          fill="#bb1242"/>
    <path d="m499.19 191c-3.24 1.8-4-1.3-5-2.91-4.38-7.11-7.12-15-10.19-22.71-2.3-5.78-2.65-12.39-7.11-17.28-1.38-.2-1.47-.94-.84-2 .29-1.26-.5-2.18-1.05-3.17 6.52 3 9.25 9.26 11.77 15.12 4.62 10.79 8.33 21.95 12.42 32.95z"
          fill="#ba1242"/>
    <path d="m426.83 160.88c-4.56 2-7.91-.39-7.43-5.49a21.54 21.54 0 0 1 1.52-4.62c.23-.21.45-.41.69-.61 1-.13 2.71-.8 1.77 1.16-.72 1.5-1.65 2.86-1.45 4.56.25 2.2-.19 5.08 3.88 3 2.04-.98 1.01 1.12 1.02 2z"
          fill="#fde3e3"/>
    <path d="m335.07 25.78c-1-.11-2-.16-3-.32-10.71-1.82-16.89 3.24-17.33 14.19.23 1.18.61 2.36-.14 3.5-8.48-6.15-8.25-14.15-5.68-20.48 2.46-6.1 8.43-8.41 16.72-6.87 7.59 1.41 7.59 1.41 9.43 9.98z"
          fill="#fd6201"/>
    <path d="m337.15 75.28-19.56-7.28a23.53 23.53 0 0 1 -13.63-13 117.57 117.57 0 0 0 18.92 7.56c6.52 2.06 12.99 4.6 14.27 12.72z"
          fill="#fc6203"/>
    <path d="m299.75 75c6.11 5.67 8.46 12.9 8.64 21-4.84-2.39-6.55-6.76-7.33-11.68-.49-3.07-.88-6.19-1.31-9.32z"
          fill="#f66007"/>
    <path d="m316.6 109.46c-14.59.41-27-11.61-25.29-24.51 1.83 15.1 11.69 21.71 25.29 24.51z" fill="#fef9e6"/>
    <path d="m331.22 52.13c12.43.27 24.1 14.37 20.87 25.29-.52-13.75-9.09-20.87-20.87-25.29z" fill="#fef8e4"/>
    <path d="m320.32 13.28c-13.32 2.72-13.32 2.72-14.43 21.96-2.89-3.56-2.59-13.15.56-17.76 2.84-4.17 7.81-5.91 13.87-4.2z"
          fill="#fef8e0"/>
    <path d="m350.31 18.26c2.65 2.8 3 6.16.38 8.91s-6.06 2-9.77-.3c10.08-.61 10.16-.74 9.39-8.61z" fill="#fef7de"/>
    <path d="m314.63 43.15c-.41-1.18-.68-2.37.14-3.5 1.55 2 3.1 4 4.64 6.05z" fill="#e8d2ce"/>
    <path d="m97.74 62.35c.3-17.13-1.93-34.06-3.83-51 4.01 16.78 6.22 33.72 3.83 51z" fill="#fef8e0"/>
    <path d="m48.45 103.75c9.91 5.81 20.07 7.24 31.65 1.43-6.46 8.04-24.6 6.82-31.65-1.43z" fill="#fef8e1"/>
    <path d="m37.46 18.23c3.26 1.88 4.4 3.88 3.38 6.22s-3.16 3.94-6.49 3.16c5.51-3.71 5.51-3.71 3.11-9.38z"
          fill="#fef8e4"/>
    <path d="m45 102.13c-.11 1-.42 1.6-1.2 1.46a1.83 1.83 0 0 1 -1.47-1.72c-.09-.69 0-1.4.86-1.42 1.2-.03 1.4 1.05 1.81 1.68z"
          fill="#fef0bc"/>
    <path d="m531 74.21c1.15 7.71.52 15.2-3.27 22.12-3.07 5.63-7.64 7-12.59 4.13a21.73 21.73 0 0 1 -1-18.19c2.71-7.21 11.04-11.12 16.86-8.06z"
          fill="#2b094e"/>
    <path d="m531 74.21c-12.34-.29-18.07 6.14-16.79 18.88.25 2.46.62 4.91.93 7.37-7.6-6.57-10.32-20.73-5.68-29.57 2.09-4 9-7.64 13.41-6.67 5.23 1.15 7.54 4.96 8.13 9.99z"
          fill="#fd6301"/>
    <path d="m501.48 138.81c3.9-7.72.11-15.9 2-23.49h1.6c0 7 .1 14-.06 21-.02 1.99-1.56 2.61-3.54 2.49z"
          fill="#fef7dd"/>
    <path d="m513.59 110.51c8 2.27 14.68-.18 20.92-6.08-2.26 7.42-13.36 10.57-20.92 6.08z" fill="#fef7dc"/>
    <path d="m537.23 65c-3.41-6.56-7.24-12.59-16.51-12.14 6.63-3.95 16.51 3.66 16.51 12.14z" fill="#fef6da"/>
    <path d="m497.64 46c4.06.55 5.08 2.06 5.06 7.61-2.09-.61-1.7-2.61-2.16-3.88-.54-1.65-2.54-1.95-2.9-3.73z"
          fill="#fef6d7"/>
    <path d="m111 108.61c1.38 2 2.61 4.22 4.17 6.13 7.46 9.15 19.11 10.68 29.83 3.49 3.19-2.13 5.06-2.5 7.48.68 1 1.36 2.95 2.06 4.46 3.06-5.63 19.15-11.22 38.31-16.91 57.45-1 3.28-1.31 6.87-3.83 9.56-3.66-5.82-7.17-11.73-11-17.44-1-1.53-1.81-3.18-4-3.25-9.19-.79-9.28-.6-12.8 7.92-1.86 4.49-2.74 9.63-7.16 12.72-1.56-1-1.65-2.81-2.19-4.35-4.31-12.44-7.68-25.18-11.89-37.65-2.33-6.94-4.37-14-9.07-19.89-1.91-2.39-2.19-4.63 2-4.79 11.37-2.14 18.93-8.89 23.4-19.37.45-1 1-2 1.52-3 1.35 3.32 2.88 6.57 5.99 8.73z"
          fill="#2b084e"/>
    <path d="m129.32 68.64a51.23 51.23 0 0 0 -13.32 4.26c-2.91-1.37-4-3.86-4.33-6.88 4.74 0 8.56-.63 10.06-6.44 1.13-4.58 7.27-7.15 12.27-6.34 5.85.94 9.12 4.38 10 10.54-.63 1.08-1.68.93-2.59.71-4.94-1.19-8.26 2.2-12.09 4.15z"
          fill="#fd6301"/>
    <path d="m124.86 99.63c-4.41-.78-7.34-3.25-7.7-7.78s3-6.55 6.56-8.33c4.38-2.21 9.16-2.66 13.85-3.55 3.06-.57 4 1 3.33 3.66s-.69 5.29-2.57 7.39c-4.33 3.14-9.94 4.24-13.47 8.61z"
          fill="#fd6201"/>
    <path d="m150.57 77.53c1.72-12.21 2-23.78-12-30.42 4.89-.06 9 2.71 11.63 7.66 3.93 7.42 3.72 15.02.37 22.76z"
          fill="#fef7e0"/>
    <path d="m129.32 68.64c3.48-5.88 8.82-6.14 14.67-4.86.41 4.08-.77 6-5.44 5-2.95-.65-6.14-.14-9.23-.14z"
          fill="#34194c"/>
    <path d="m124.86 99.63c2.14-6.63 8.14-7.02 13.47-8.63-2.88 6.82-6.46 9.1-13.47 8.63z" fill="#33164d"/>
    <path d="m120.7 82.57c-6.82 6.8-9.86 11.25 1.17 19.54a9.5 9.5 0 0 1 -9-8.92c-.28-5.5 2.84-9.73 7.83-10.62z"
          fill="#fef7df"/>
    <path d="m111.62 66 4.38 6.9-7 5.53c0-4.33-.74-8.8 2-12.71a1 1 0 0 0 .62.28z" fill="#280b4d"/>
    <path d="m150.76 108.8c7.26 2.68 12.35 1.15 14.41-7.24.85 4.47-.95 7-3.86 8.85-3.68 2.32-7.16 1.35-10.55-1.61z"
          fill="#fef7de"/>
    <path d="m113.35 54.28c-1.8 7.28-1.8 7.28 6 7.75-3.17 2.22-6.12 2.88-8.2.14-2.43-3.17.37-5.65 2.2-7.89z"
          fill="#fef7dd"/>
    <path d="m244 100.11c-4.09-.21-6.33-2.51-7-6.39s1-6.64 4.3-8.69a31.41 31.41 0 0 1 10.21-3.66c2.49-.52 6-1.89 7.35 0s.58 5.43-.55 8.1c-.32.75-.77 1.45-1.15 2.17-4.24 3.01-9.51 4.47-13.16 8.47z"
          fill="#fd6201"/>
    <path d="m234.8 68c4.24.58 6.47-1.83 7.87-5.38 2.38-6 5.26-7.76 11.35-6.69 4.7.81 7 3.9 7.15 9.74-3.38 1.37-7.21 1.6-10.19 4-4.72.23-9.23 1.57-13.81 2.54-2.6-.42-2.96-2.05-2.37-4.21z"
          fill="#fd6201"/>
    <path d="m269.48 78.65c.94-11.67 1-23-10.93-31 10.27 1.68 16.12 18.84 10.93 31z" fill="#fef7de"/>
    <path d="m244 100.11c2.43-5.85 7.81-7.12 13.14-8.48-2.94 7.26-6.83 9.77-13.14 8.48z" fill="#2d144d"/>
    <path d="m243.1 103.68c-6.51-1-10.59-4.78-11.09-9.24-.41-3.63.3-6.79 5.59-8.85-7.49 8.84-2.29 13.48 5.5 18.09z"
          fill="#fef7dd"/>
    <path d="m268.51 110.24c7.33 2.85 11.95.36 14.38-7 .65 4.3-1.13 7.08-4.23 8.79-3.43 1.86-6.89 1.31-10.15-1.79z"
          fill="#fef6db"/>
    <path d="m251 69.62c2.23-4.3 6-4.68 10.19-4 .48 2.94-.42 4.42-3.72 4a53.69 53.69 0 0 0 -6.47 0z" fill="#3a274d"/>
    <path d="m234.8 68 2.37 4.18-5.17 2.87c.82-2.47.19-5.33 2.06-7.5a1.2 1.2 0 0 0 .74.45z" fill="#280f4c"/>
    <path d="m532 190.2c-2-1.56-.73-3.35-.13-4.87 1.58-4 .8-8.81 4-12.32 1.7 3.64 4.78 5.92 8 8.1 5.78 8.09 14.47 9.53 23.47 10.58 2.35.27 6.06-.22 6 4.1-5.94 9-12 10.08-24.2 4.36-3.4-2.79-4.41-7.52-8.16-10-2.98-1.03-5.98-1.65-8.98.05z"
          fill="#2b084e"/>
    <path d="m570.27 161.85c-3.1.19-6.25 0-9.19 1.28-4.23 1.84-5.58 4.82-4 8.8-9.15-.79-12.82-9-8.06-17.06 2-.78 4-1.59 6-2.32 3.68-1.34 7.3 0 10.81.67 4.65.87 2.65 5.87 4.44 8.63z"
          fill="#bb1242"/>
    <path d="m573.3 195.79c-3.44-4.3-8.57-3.41-13-3.83-7.6-.71-13.28-3.7-16.44-10.85 6.71 1.08 13.57 1.19 20.16 3 7.38 2.08 10.55 5.39 10 10.38-.02.51-.47.88-.72 1.3z"
          fill="#ba1242"/>
    <path d="m582.89 202.86c-1.83 1-2.32 4.15-5.4 3.59 6.51-8.64 9.63-19.18-1.07-26.59 3.41-.11 4.22.48 8.58 6.21v-.07c1.32 5.87.89 11.53-2.08 16.87z"
          fill="#fee6e6"/>
    <path d="m549 154.87c-6.85 3.67-5.88 10.58 2.44 17.39-4 .29-7.13-2.43-8.42-7.27s.35-9.8 3.6-11.36c1.49-.71 2.16-.24 2.36 1.26z"
          fill="#fedfdf"/>
    <path d="m581.24 149.85c5 7.3 5.13 9.66 1 14.33-.68-.17-2.28-.23-1.54-1.05 3.45-3.89 1.51-7.29-.47-10.8-.66-1.23-1.5-2.53 1.01-2.48z"
          fill="#fed8d8"/>
    <path d="m540.94 190.13c4.84 1.61 6.33 6 8.16 10-4.93-1.52-6.31-5.96-8.16-10z" fill="#b00e41"/>
    <path d="m532.14 198c.16-2.41-1.21-5.59 4.14-6.21-2.73 1.91-.84 5.37-4.16 6.18z" fill="#fedfdf"/>
    <path d="m469.1 210c7.14-3.05 8.56-8.54 3.89-15 6.41 3.13 9.9 9 11.72 15.19 1.76 5.95-7 12.75-13.78 11.45-3.64-.7-7.2-2-9.63-4.91-2.09-2.47-3.5-2.14-6-.44-12.58 8.7-25 5.9-32.51-7.08 8.64 4.1 16.77 2.72 24.06-2.94 2.56-2 3.7-1.44 5.46.59 1.49 1.72 3.16 3.46 5.83 3.21 3.68-.2 7.32-.15 10.96-.07z"
          fill="#bb1242"/>
    <path d="m468.22 234c-6.16-1.11-7.08-6.6-9.24-11.05 5.23 1.9 6.45 7.14 9.24 11.05z" fill="#b41041"/>
    <path d="m563.27 89.86c-.64 1.94 1.3 3.77.3 5.8-3.51-4.1-3.78-30-.24-37.45 1.32 4.25-.94 8.1-.06 11.9a122.86 122.86 0 0 1 0 19.75z"
          fill="#fef6da"/>
    <path d="m552.87 62.87c-6.27-1-8.58-5.95-10.85-10.93 1.1.3 2.18.66 3.3.89 8.46 1.76 8.46 1.76 7.55 10.04z"
          fill="#fa6306"/>
    <path d="m569.34 31.09c-1.77-1.71-1-3.21-.84-4.55 1-6.8 1-6.8-3.64-9.85 5.7-.71 7 .49 6.29 5.79a31.68 31.68 0 0 1 -1.81 8.61z"
          fill="#fef5d5"/>
    <path d="m551.31 93.11q-.52-6.19-1-12.39c1.84-1.8.15-4.48 1.6-6.37q0 9.3 0 18.6a1.46 1.46 0 0 1 -.6.16z"
          fill="#a11d31"/>
    <path d="m563.27 89.86a153.13 153.13 0 0 1 0-19.75 47.8 47.8 0 0 1 0 19.75z" fill="#fee10b"/>
    <path d="m415 95.75c-2-2-2.43-5.21-5-6.78-5.48-3.93-8.29-3.56-11.93 1.75-2.15 3.14-4.06 6.43-7.31 8.65-2.82 1.92-5.64 2.72-8.74.72-3.57-8.73.64-23.92 8.08-29.22 1.53-1.09 3.11-1.88 5.05-1.2l2.18 1.33a12.84 12.84 0 0 1 3.58 4.07c3.5 5.4 5.76 5.87 11.45 2.46a4.26 4.26 0 0 1 2.72-1q-.03 9.6-.08 19.22z"
          fill="#2b084e"/>
    <path d="m395.14 69.67c-9.5 3.81-11.68 12.33-13.14 21.06-.51 3 0 6.23 0 9.36-4.83-1.63-6.27-5.81-6.86-10.09-1.16-8.46.23-16.55 4.93-23.86a13.54 13.54 0 0 1 6.16-5.6c4.21-1.7 6.46-.39 6.88 4.13a12.72 12.72 0 0 0 2.03 5z"
          fill="#fd6201"/>
    <path d="m415.08 76.51c-8 7.58-11.66 6.43-17.76-5.51 10.07.07 13.51-4.91 10.14-14.59-.12-.35.16-.85.26-1.28l7.33 11.77z"
          fill="#fc6202"/>
    <path d="m378.2 101.15c-10.69-6.58-10.75-27.88.13-37.55-2.8 6.88-5.93 12.72-6.44 19.39-.53 6.94.81 13.16 6.31 18.16z"
          fill="#fef8e3"/>
    <path d="m398.67 94.71q1.11-7.09 6.41-5.81c3.8.93 5.16 5.77 3.13 12.11-1.45-1.76-.67-3.58-.83-5.18-.21-2.19-.29-4.47-2.92-5.16s-3.46 1.33-4.34 3.12c-.3.62-.65 1.1-1.45.92z"
          fill="#fef8e1"/>
    <path d="m397.19 67.21c8-2.12 8.24-2.42 7.63-10.11 2.85 2.39 3 5 1.41 7.55-1.77 2.92-4.39 4.2-9.04 2.56z"
          fill="#fef7dc"/>
    <path d="m198.27 106.16c14.84-15.16 21.83-33.62 23.3-55.16 5.43 11.83-10.57 49.09-23.3 55.16z" fill="#fef8e4"/>
    <path d="m183.92 97.14a108.21 108.21 0 0 1 -7.13-41.31c1.91 13.84 3.91 27.66 7.13 41.31z" fill="#fef7e0"/>
    <path d="m466.28 246.78c18.81 2.66 30-7.62 38.26-22.69a187.41 187.41 0 0 0 13.69-32c2 2.81-.41 5.07-1.19 7.35-5.29 15.46-11.55 30.48-23.84 41.89-7.69 7.14-17.07 8.58-27.13 6.34-.05 0-.1-.3-.06-.43a1.76 1.76 0 0 1 .27-.46z"
          fill="#a8072f"/>
    <path d="m522.06 175.8c-2.2 3-1.57 7.28-4.34 10.31-1.34-2.19-.05-3.81.44-5.44 2.48-8.4 4.93-16.8 6.62-25.4.64-3.29.79-6.33-3.72-6.93.55-1.86 2-1.2 2.9-1.51 4 1.71 3.73 5.12 3 8.4-1.49 6.89-3.25 13.77-4.9 20.57z"
          fill="#fee4e4"/>
    <path d="m425.94 49.79c3.34 3.1 4.8 7.38 7.05 11.15l-3.88 5.72-1.87-1.26z" fill="#f75f08"/>
    <path d="m426.78 88.45c2.08 6.51 4 13.09 2.91 20-.41 2.51-2.25 4.16-5.47 3.74 5.56-3 3.92-7.84 3.54-12.29-.33-3.79-2.07-7.46-.98-11.45z"
          fill="#fef7de"/>
    <path d="m423.85 63.15c-.86-4-1-8.26-2.18-12.28 3.68 3.44 3.67 7.7 2.18 12.28z" fill="#fef6d6"/>
    <path d="m454.74 51h.17l1.09 1.06c0 1.16 1.37 2.37-.07 3.53-3.42-3.86-3.42-3.86-1.19-4.59z" fill="#fef9dd"/>
    <path d="m203.19 192.83c-3.79 1.95-7.25 4.87-12 4a14.56 14.56 0 0 1 12-4z" fill="#27094e"/>
    <path d="m80.09 122.25c-.75.9-4 .11-1.84 3 10.13 13.37 12.35 29.87 17.56 45.17 2.08 6.08 4.55 12.11 5.47 18.56-2.47 3.7-3.74 1.06-4.79-1.05-4.21-8.55-6.47-17.79-9.42-26.79-4.65-14.19-7.77-28.93-15.14-42.15 3.07.12 4.57 4.31 8.16 3.26z"
          fill="#ba1242"/>
    <path d="m261.66 193c-3.62 2.88-7.25 5.76-12.36 4.89a30 30 0 0 1 12.36-4.89z" fill="#2c094e"/>
    <path d="m283.1 181c.3 2.3.61 4.6.91 6.91-2.39-2-4.53-4.06-.91-6.91z" fill="#340e4e"/>
    <path d="m418.12 153c-.54 4.89.24 8.82 5.26 11.58 2.47 1.36 3.79 4.81 5.63 7.32-6.57 3.06-12.85 6.43-15.13 14.1-2.05-3.08 0-6.15.28-9.13.75-8.08 1.44-16.16 3.96-23.87z"
          fill="#370e4f"/>
    <path d="m405.14 205.85c-.39 1.92.68 4-.6 5.84-2.32-3.58-2.56-8.92-.49-10.53.27 1.58-.34 3.37 1.09 4.69z"
          fill="#fee4e3"/>
    <path d="m465 57.09c-.08 1.65-.15 3.3-.23 4.95a29.12 29.12 0 0 1 -2-2.72c-1.97-3.43.63-2.38 2.23-2.23z"
          fill="#35144c"/>
    <path d="m478.86 90.34c1.07 6.15 2.54 12.31 2 18.62-.16 1.9-2.08 3.17-5 3.48 6.77-7.05.45-14.8 3-22.1z"
          fill="#fef7de"/>
    <path d="m470.76 55.54c4.4 1.52 6.2 8 4.81 18.15-2.4-6.77-.57-13.34-4.81-18.15z" fill="#fef6d8"/>
    <path d="m582.93 202.88c1.51-5.52 3.17-11 2.08-16.87 2.27 5.99 1.9 11.65-2.08 16.87z" fill="#fe6666"/>
    <path d="m299.19 202.84a53.52 53.52 0 0 0 .55 10.88 5.13 5.13 0 0 1 -2.47 5.54c-1.89 1.07-3.64.77-6.06-1.82 7.3 1.57 6.82-2.13 6.21-6.31a93.29 93.29 0 0 1 -.53-9.91c-.05-1.68.25-2.91 2.06-1z"
          fill="#fee3e3"/>
    <path d="m462.51 43.19c2.29-6.31 4-8.95-3.27-15.25 4.37.36 6.41 2.67 6.9 6.2.46 3.26.86 6.79-3.63 9.05z"
          fill="#fef7de"/>
    <path d="m65.11 124.45c2.55-2.52 5-5.76 7.06-.52 5.62 14 10.2 28.41 14.57 42.87.07.21-.26.55-.45.93-2-.63-1.84-2.52-2.33-4-4.12-12.1-8.14-24.24-12.35-36.31-.91-2.58-1.42-6.96-6.5-2.97z"
          fill="#feeaea"/>
    <path d="m121.24 168.29a3.46 3.46 0 0 1 3.88 1.54c4.09 6.16 9.35 11.64 11.08 19.15-1.3 2.77-2.79 2.16-4.49.34-2.13-2.29-2.7-5.25-3.71-8-1.68-4.65-2.89-9.54-6.76-13.03z"
          fill="#b71141"/>
    <path d="m162.45 157.66c-.56-3.71 1-6.89 1.66-10.16 1.18-5.5 2.38-11 3.87-16.43 1-3.5 1.11-6.09-3.46-6.5-.7-.06-1.34-.68-2.37-1.24 7.41-1.24 9.38.74 7.87 7.25-1.72 7.41-3.33 14.86-5.18 22.24-.4 1.6-.07 3.73-2.39 4.84z"
          fill="#fee6e5"/>
    <path d="m126.14 184.59c-3.69-3-4.22-6.58-6-9.36-1.41-2.23-2.53-4.71-5.46-.73-.61-2.7.69-3.61 2.14-4.24a2.45 2.45 0 0 1 3 1.17 39.34 39.34 0 0 1 6.32 13.16z"
          fill="#fee6e5"/>
    <path d="m107.38 203.13c-2.58 4.1-5.52 7.77-11 7 4.45-1.06 7.3-4.66 11-7z" fill="#fee7e7"/>
    <path d="m135.43 207c2.16-1.34 3.91-3.18 6.21-4.25-.93 2.96-2.78 4.72-6.21 4.25z" fill="#fedfdf"/>
    <path d="m321.1 182c6.57 13.44 14.62 25.56 29.12 32.14-1.49 1.43-2.65.68-3.72.13-13.13-6.72-20.32-18.71-27.16-30.95-1-1.84.5-1.77 1.78-1.28z"
          fill="#feeded"/>
    <path d="m294 131.25c0 1.52.07 3.05.11 4.58v16.46h-1.65c-.88-3.43-.32-7-.47-10.5-.07-1.5 0-3 0-4.5 0-7.85 0-7.85-7.37-8 4.38-3.37 6.83-2.88 9.38 1.96z"
          fill="#fef1f1"/>
    <path d="m329.33 140.2c4.79-.94 9.2 2.17 9.57 5.88.34 3.49-3.14 6.34-8.31 6.56 1.77-2.72 7-2.35 6.17-6.69-.61-3.36-4-4.28-7.43-5.75z"
          fill="#fee2e2"/>
    <path d="m378.82 212.8c7.53-1.2 10 1.33 8.06 7.08-.18-4.36-3.21-5.96-8.06-7.08z" fill="#fee1e1"/>
    <path d="m369 192.93c-8.4-1.51-12.18-10.15-8.94-20.48 1.57-5 4.25-9.11 9.79-10.14s10 1.4 13.59 5.47c1.15 1.28 2 2.63 1.62 4.45a3.08 3.08 0 0 1 -2.24.91c-9.55-.28-12.9 6.2-13.33 15.45-.08 1.46.37 2.97-.49 4.34z"
          fill="#bb1242"/>
    <path d="m369 192.93c-3.77-12.62 3.43-21.9 16.06-20.7 3.09 3.42 2.18 7.08.27 10.49-3.56 6.28-8.95 9.92-16.33 10.21z"
          fill="#2c084e"/>
    <path d="m409.85 121.48c-1.93 15.72-5.89 31.15-7.55 47-.74-16.18 3.82-31.48 7.55-47z" fill="#fee9e9"/>
    <path d="m356.36 183.41c-3.63-9.43.05-19.16 8.59-22.86-7.8 5.75-8.74 14.1-8.59 22.86z" fill="#fee5e5"/>
    <path d="m182.79 173.14c3.62-7.39 8.05-12.44 14.05-16 4.51-2.68 7.59-2.19 9.44 1.22a7.57 7.57 0 0 1 -2.93 10.4c-6.14 3.13-12.83 4.02-20.56 4.38z"
          fill="#bb1242"/>
    <path d="m181.1 175c-1.94-7.34 4.75-16.67 13.73-19.38-6.25 5.27-13.16 10.06-13.73 19.38z" fill="#fee8e8"/>
    <path d="m215.85 165.18c-2.1-9.51-2.1-9.51-8.28-15.93 7.43.94 11.83 9.41 8.28 15.93z" fill="#fee5e5"/>
    <path d="m212.82 188c3.85-4.37 5.45-4.19 7.4.66-2.57-1.07-4.8-3-7.4-.66z" fill="#fedbdb"/>
    <path d="m264.13 162.82c0 3.65-2.35 5.66-5.19 7.26-5 2.84-10.69 3.46-16.17 4.69-2.27.51-2.76-.68-1.74-2.51 3.44-6.18 7.62-11.74 14-15.17 4.78-2.58 8.97.15 9.1 5.73z"
          fill="#bb1242"/>
    <path d="m269.22 172.57c6.56-10.49 3.65-18.44-6.94-24.78 4.79.09 9.66 4.44 11.47 9.29a13.47 13.47 0 0 1 -4.53 15.49z"
          fill="#fee7e7"/>
    <path d="m247.11 160.21c-4.15 4.82-7.49 10-8.89 16.94-1.79-5.52 2.66-13.9 8.89-16.94z" fill="#fee6e6"/>
    <path d="m274 182.58c5.6 3.92 4.45 10.65-2 15.35 1.88-5.11 6.16-9.22 2-15.35z" fill="#fee4e4"/>
    <path d="m463.87 242.35c14.69 2.71 26.1-2.29 34.56-14.57-3.34 12.62-23.8 21.14-34.56 14.57z" fill="#fee8e8"/>
    <path d="m476.05 146.12.84 2c.05 2.27-.86 2.6-1.91.65-1.32-2.45-2.91-3.74-6.44-2.1 3.31-3.82 3.46-3.81 7.51-.55z"
          fill="#fee3e3"/>
    <path d="m435 199c-6.83-.6-8.78-2.58-9.94-10.08-.72-1-.57-1.73.71-2a40.52 40.52 0 0 1 19.56-7.27c2.47-.27 2.84.51 2.81 2.54 0 3.55-1.34 6.71-2.76 9.85a36.74 36.74 0 0 0 -10.38 6.96z"
          fill="#bb1242"/>
    <path d="m446.49 146.83c4.84-.24 8.22 2.11 10.43 5.84 5.16 8.65 4.6 17.8 1.65 27-.85-6.19 1-12.39-.36-18.66-1.49-6.85-5.11-11.54-11.72-14.18z"
          fill="#fee1e1"/>
    <path d="m439.05 169.29c.48-2.7.74-3 3.82-4.32a10.83 10.83 0 0 1 9.13-.05c.5 2.56-.06 4-3.17 3.89s-6.52.3-9.78.48z"
          fill="#300c4e"/>
    <path d="m469.1 210c-3.63 2.16-7.28 1.46-10.92.06-.37-.84-1.06-2.45.56-1.9 7.16 2.45 11.8.36 13.76-8 1.17 4.44.9 5.08-3.4 9.84z"
          fill="#fee4e4"/>
    <path d="m425.79 186.84c-.23.68-.47 1.37-.71 2-1.91 5.93-1.11 7.54 5.85 11.83-3.92.41-6.24-.87-7.81-4.48a9.14 9.14 0 0 1 1.07-9.84c.44-.52 1.2-.18 1.6.49z"
          fill="#fedfdf"/>
    <path d="m435 199c1.65-5 5.56-6.68 10.38-7-2.28 4-5.32 7-10.38 7z" fill="#280b4e"/>
</svg>